<?xml version="1.0" encoding="UTF-8"?>
<svg version="1.1" xmlns="http://www.w3.org/2000/svg" width="32" height="32">
<path d="M0 0 C10.56 0 21.12 0 32 0 C32 10.56 32 21.12 32 32 C21.44 32 10.88 32 0 32 C0 21.44 0 10.88 0 0 Z " fill="#939393" transform="translate(0,0)"/>
<path d="M0 0 C5.94 0 11.88 0 18 0 C18 10.56 18 21.12 18 32 C10.08 32 2.16 32 -6 32 C-6 31.67 -6 31.34 -6 31 C-4.91460937 30.93941406 -3.82921875 30.87882812 -2.7109375 30.81640625 C-1.26561514 30.73193936 0.17969682 30.64729449 1.625 30.5625 C2.33785156 30.52318359 3.05070312 30.48386719 3.78515625 30.44335938 C7.91803682 30.19690319 11.92269024 29.76529947 16 29 C16 28.01 16 27.02 16 26 C12.7 25.34 9.4 24.68 6 24 C6.185625 22.865625 6.37125 21.73125 6.5625 20.5625 C6.706875 19.386875 6.85125 18.21125 7 17 C6.67 16.67 6.34 16.34 6 16 C5.58132401 12.99948871 5.435261 10.87475307 7.1171875 8.26953125 C8.35522549 6.79717534 9.67331961 5.39301441 11 4 C9.35 5.32 7.7 6.64 6 8 C5.34 7.67 4.68 7.34 4 7 C4 5.35 4 3.7 4 2 C2.68 1.34 1.36 0.68 0 0 Z " fill="#949494" transform="translate(14,0)"/>
<path d="M0 0 C-1.15173355 2.46800047 -2.04783565 4.04783565 -4 6 C-4.20495973 9.07439596 -4.0551653 11.730303 -3.4375 14.75 C-3 17 -3 17 -4 19 C-2.35 19.66 -0.7 20.32 1 21 C1 21.33 1 21.66 1 22 C-8.405 22.495 -8.405 22.495 -18 23 C-18.33 23.99 -18.66 24.98 -19 26 C-20.32 25.34 -21.64 24.68 -23 24 C-23 23.34 -23 22.68 -23 22 C-19.22777911 20.24836544 -16.333361 19.77509973 -12.1875 19.875 C-10.72376953 19.90207031 -10.72376953 19.90207031 -9.23046875 19.9296875 C-8.49441406 19.95289062 -7.75835937 19.97609375 -7 20 C-7 18.02 -7 16.04 -7 14 C-7.99 13.67 -8.98 13.34 -10 13 C-10.66 14.32 -11.32 15.64 -12 17 C-13.98 16.67 -15.96 16.34 -18 16 C-18 15.34 -18 14.68 -18 14 C-16.35 14 -14.7 14 -13 14 C-12.58274322 10.62599422 -12.58274322 10.62599422 -13 7 C-15.40858714 5.1375562 -15.40858714 5.1375562 -18 4 C-18 3.34 -18 2.68 -18 2 C-17.2265625 2.2165625 -17.2265625 2.2165625 -16.4375 2.4375 C-15.633125 2.623125 -14.82875 2.80875 -14 3 C-12.865625 3.268125 -11.73125 3.53625 -10.5625 3.8125 C-6.92120964 4.36722079 -6.92120964 4.36722079 -4.1875 2.0625 C-2 0 -2 0 0 0 Z " fill="#414647" transform="translate(25,4)"/>
<path d="M0 0 C0 0.99 0 1.98 0 3 C-4.92132454 4.95769671 -9.0494186 5.27798631 -14.25 5.1875 C-14.96929687 5.18685547 -15.68859375 5.18621094 -16.4296875 5.18554688 C-21.71803571 5.14098214 -21.71803571 5.14098214 -24 4 C-23.67 2.68 -23.34 1.36 -23 0 C-19.91722144 -0.1974877 -16.8337715 -0.38123332 -13.75 -0.5625 C-12.87730469 -0.61857422 -12.00460938 -0.67464844 -11.10546875 -0.73242188 C-10.26113281 -0.78076172 -9.41679687 -0.82910156 -8.546875 -0.87890625 C-7.77182617 -0.9260376 -6.99677734 -0.97316895 -6.19824219 -1.02172852 C-3.96887415 -0.99969234 -2.13101433 -0.6303897 0 0 Z " fill="#4B4F51" transform="translate(30,26)"/>
<path d="M0 0 C0 0.33 0 0.66 0 1 C-9.405 1.495 -9.405 1.495 -19 2 C-19.33 2.99 -19.66 3.98 -20 5 C-21.32 4.34 -22.64 3.68 -24 3 C-24 2.34 -24 1.68 -24 1 C-15.99192011 -2.52066936 -8.25611562 -2.64818803 0 0 Z " fill="#4A4E4F" transform="translate(26,25)"/>
<path d="M0 0 C0.78955078 -0.01224609 1.57910156 -0.02449219 2.39257812 -0.03710938 C4.45057435 -0.04237279 6.50812009 0.06543715 8.5625 0.1875 C9.2225 0.8475 9.8825 1.5075 10.5625 2.1875 C6.99164986 3.37778338 3.7164317 3.37148398 0 3.375 C-0.68513672 3.38724609 -1.37027344 3.39949219 -2.07617188 3.41210938 C-3.86484112 3.41737533 -5.65298848 3.30950021 -7.4375 3.1875 C-8.0975 2.5275 -8.7575 1.8675 -9.4375 1.1875 C-7.33618615 -0.91381385 -2.89603678 0.00235259 0 0 Z " fill="#878888" transform="translate(15.4375,25.8125)"/>
<path d="M0 0 C1.67542976 0.28604898 3.34385343 0.61781233 5 1 C5 2.65 5 4.3 5 6 C1.25 7.125 1.25 7.125 -1 6 C-1.042721 4.33388095 -1.04063832 2.66617115 -1 1 C-0.67 0.67 -0.34 0.34 0 0 Z " fill="#434749" transform="translate(14,1)"/>
</svg>
